<svg xmlns="http://www.w3.org/2000/svg" viewBox="0 0 800 430"><rect width="800" height="430" fill="#f4f7fb"/><rect x="24" y="22" width="752" height="386" rx="10" fill="white" stroke="#d9e2ee"/><rect x="24" y="22" width="752" height="45" rx="10" fill="#f8fafc"/><circle cx="49" cy="45" r="5" fill="#315ea8"/><rect x="66" y="39" width="95" height="12" rx="4" fill="#173b70"/><rect x="52" y="91" width="696" height="190" rx="6" fill="#173b70"/><path d="M510 91h238v190H390z" fill="#315ea8" opacity=".6"/><circle cx="580" cy="185" r="65" fill="none" stroke="#fff" stroke-width="20" opacity=".8"/><g fill="white"><rect x="86" y="134" width="200" height="18" rx="5"/><rect x="86" y="165" width="250" height="30" rx="5"/><rect x="86" y="210" width="122" height="12" rx="4"/></g><g fill="#e5ebf3"><rect x="52" y="306" width="210" height="74" rx="6"/><rect x="287" y="306" width="210" height="74" rx="6"/><rect x="522" y="306" width="226" height="74" rx="6"/></g><text x="400" y="402" text-anchor="middle" font-family="Arial" font-size="12" fill="#64748b">CORPORATE WEBSITE · SCREENSHOT PLACEHOLDER</text></svg>
